<?xml version="1.0" encoding="UTF-8"?>
<svg xmlns="http://www.w3.org/2000/svg" version="1.1" viewBox="0 0 375.8 81.8">
  <defs>
    <style>
      .cls-1 {
        fill: #da4167;
      }

      .cls-2 {
        fill: #fff;
      }
    </style>
  </defs>
  <!-- Generator: Adobe Illustrator 28.6.0, SVG Export Plug-In . SVG Version: 1.2.0 Build 709)  -->
  <g>
    <g id="Layer_1">
      <g id="Layer_1-2" data-name="Layer_1">
        <g id="Capa_1">
          <g>
            <path class="cls-1" d="M25.5,14.3c.7.3,1,.8,1.1,1.5,0,.6-.3.9-.9.8-.8,0-1.3-.9-1.3-1.6,0-.7.7-.9,1.2-.8ZM16.2,11.3c0,0,.3,0,.4,0s.3,0,.6.2c1.8.7,3.5,1.3,5.2,1.9.7.2,1,.7,1.2,1.3,0,.3,0,.8-.3.9s-.4.2-.8,0c-.7-.3-1.3-.4-2-.8-1.1-.3-2.3-.8-3.5-1.2-.7-.2-1-.7-1.2-1.3,0-.6,0-.8.2-1.1h0ZM28.5,67.3c-.8.3-1.5.6-2.2.8-2.5,1-5.1,1.9-7.6,2.9-1.6.7-3.1,1.2-4.7,1.9h-.3c0,0,0-.2,0-.3,0,0,.2-.2.3-.2,1.5-.6,3-1.2,4.5-1.8,1.8-.7,3.5-1.3,5.2-2,1.6-.7,3.1-1.2,4.7-1.9.2,0,.3,0,.3.2s0,.3-.3.3Z"/>
            <path class="cls-1" d="M.4,6.4H.4v70.1H.4V6.4Z"/>
            <path class="cls-1" d="M34.2,64c0,.7-.2,1.3-.4,1.9-.3.7-.9,1.2-1.7,1.7-.4.3-.8.3-1.3.6-2.2.9-4.5,1.8-6.7,2.7-3,1.2-6.1,2.4-9.3,3.6-1.5.6-3,1.2-4.5,1.8-.8.3-1.8.6-2.6.4-.7,0-1.2-.2-1.7-.8-.3-.3-.6-.8-.7-1.3V9.5c0-.8.2-1.6.8-2.3.4-.6,1-.8,1.7-.9.9-.2,1.8,0,2.7.3,1.6.6,3.1,1.1,4.7,1.7,2.8,1,5.6,2,8.4,3,2.8,1,5.6,1.9,8.3,3,1.3.6,2.2,1.6,2.5,2.9v6.7h2.8v-6.4c0-.7,0-1.2-.3-1.8-.3-.8-.8-1.6-1.3-2.2-.8-.8-1.5-1.5-2.5-1.9-2.1-.8-4.4-1.7-6.5-2.5-3.3-1.3-6.6-2.5-9.8-3.8-2.3-.9-4.6-1.8-6.9-2.7-1.1-.4-2.3-.8-3.5-.8s-2,0-3,.4c-.7.3-1.1.7-1.6,1.2-.7.8-1,1.6-1,2.5h0v70.5c0,.6.2,1,.4,1.5.6.9,1.3,1.6,2.3,1.9,1.1.3,2.1.3,3.2.3.9,0,1.8-.3,2.6-.8,2.7-1.1,5.5-2.2,8.1-3.3,2.1-.8,4.2-1.8,6.4-2.6,2.3-.9,4.6-1.9,6.9-2.9.8-.3,1.6-.7,2.3-.9,1.1-.4,2-1.2,2.7-2.2.8-1.1,1.3-2.4,1.3-3.9v-5.5h-2.8v5.9h.2Z"/>
            <path class="cls-1" d="M.5,76.1V6.4s0,0,0,0H.4c0,23.3,0,46.6,0,69.8,0,.2,0,.3,0,.3,0,0,0-.3,0-.3Z"/>
            <path class="cls-1" d="M17.2,13.5c1.1.4,2.3.8,3.5,1.2.7.3,1.3.4,2,.8.3,0,.6,0,.8,0,.3-.2.3-.6.3-.9-.2-.7-.6-1.1-1.2-1.3-1.8-.7-3.5-1.3-5.2-1.9-.2,0-.3-.2-.6-.2s-.3,0-.4,0c-.3.3-.3.6-.3.9.3.8.7,1.3,1.3,1.5h0Z"/>
            <path class="cls-1" d="M28.5,66.7c-1.6.7-3.1,1.2-4.7,1.9-1.8.7-3.5,1.3-5.2,2-1.5.6-3,1.2-4.5,1.8,0,0-.2,0-.3.2s0,.2,0,.3h.3c1.6-.7,3.1-1.2,4.7-1.9,2.5-1,5.1-1.9,7.6-2.9.8-.3,1.5-.6,2.2-.8.2,0,.3-.2.3-.3,0-.2-.2-.3-.4-.2Z"/>
            <path class="cls-1" d="M25.7,16.6c.6,0,.9-.3.9-.8,0-.8-.4-1.2-1.1-1.5-.7-.3-1.1,0-1.1.8,0,.8.6,1.5,1.3,1.6Z"/>
          </g>
          <path class="cls-2" d="M25.9,37.3c.5-1,1.2-1.9,2-2.6s1.8-1.3,2.7-1.6c1-.4,2.2-.5,3.3-.5s2.6.3,3.6.9,2,1.4,2.7,2.5l5.8-4.7c-1.2-1.8-2.7-3.1-4.7-4.1s-4.3-1.4-6.9-1.4-4.4.3-6.5,1.1-3.8,1.8-5.5,3.1-3,3-3.9,4.7c-1,1.9-1.8,3.8-2,6-.3,2.2-.1,4.2.4,6s1.4,3.4,2.6,4.7,2.7,2.4,4.6,3.1c1.9.8,3.9,1.1,6.1,1.1s5.2-.4,7.3-1.4,4.2-2.3,5.8-4.1l-4.5-4.5c-1.1,1.1-2.2,2-3.4,2.5s-2.5.9-3.8.9-2.2-.2-3.2-.5c-1-.4-1.8-1-2.3-1.6-.7-.8-1-1.6-1.3-2.6-.2-1-.3-2.2-.1-3.4.1-1.2.4-2.4,1-3.4,0,0,.2-.2.2-.2Z"/>
          <polygon class="cls-2" points="47.7 55.1 70.9 55.1 71.7 48.8 56.6 48.8 57.4 43.6 70.1 43.6 71 37.4 58.1 37.4 58.8 32.6 73.4 32.6 74.1 26.3 51.6 26.3 47.7 55.1"/>
          <polygon class="cls-2" points="89.6 26.3 81.4 26.3 77.5 55.1 99.5 55.1 100.3 48.6 86.6 48.6 89.6 26.3"/>
          <path class="cls-2" d="M125.1,26.3l-2.1,15.8c-.3,2.5-1.1,4.3-2.2,5.3-1.1,1.1-2.5,1.6-4.2,1.6s-3-.5-3.8-1.6-1.1-2.8-.8-5.3l2.1-15.8h-8.1l-2.1,16c-.5,4.3.2,7.6,2.3,10,2.1,2.3,5.3,3.5,9.5,3.5s7.8-1.2,10.4-3.5c2.7-2.3,4.4-5.6,4.9-10l2.1-16h-8.1.1Z"/>
          <g>
            <path class="cls-1" d="M149.4,26.3l-16.5,28.8h8.3l3-5.6h12.3l1.5,5.6h8.4l-9-28.8h-8ZM147.3,43.6l4.9-9.2,2.5,9.2h-7.5.1Z"/>
            <path class="cls-1" d="M193.5,27.6c-1.8-.9-4.1-1.3-6.7-1.3h-13.1l-3.8,28.8h8.1l1-7.6h5c2.6,0,4.9-.4,7-1.3,2-.9,3.6-2.1,4.9-3.7,1.2-1.6,2-3.5,2.3-5.6.3-2.2,0-4.1-.8-5.7-.9-1.5-2.2-2.7-3.9-3.6ZM190,37c-.2,1.3-.8,2.3-1.6,3.1-1,.8-2.3,1.1-3.9,1.1h-4.5l1.1-8.4h4.5c1.8,0,3,.3,3.6,1.1.8.8,1,1.9.9,3.2h-.1Z"/>
            <path class="cls-1" d="M221.1,42c-.3,2.5-1.1,4.3-2.2,5.3-1.1,1.1-2.5,1.6-4.2,1.6s-3-.5-3.8-1.6-1.1-2.8-.8-5.3l2.1-15.8h-8.1l-2.1,16c-.5,4.3.2,7.6,2.3,10,2.1,2.3,5.3,3.5,9.5,3.5s7.8-1.2,10.4-3.5c2.7-2.3,4.4-5.6,4.9-10l2.1-16h-8.1l-2.1,15.8h.1Z"/>
            <polygon class="cls-1" points="234 55.1 257.1 55.1 257.9 48.8 242.9 48.8 243.5 43.6 256.4 43.6 257.2 37.4 244.4 37.4 245.1 32.6 259.5 32.6 260.4 26.3 237.8 26.3 234 55.1"/>
            <path class="cls-1" d="M272.6,33.4c.3-.4.9-.7,1.6-.9s1.6-.3,2.7-.3,2.5.2,3.8.5,2.6.9,3.8,1.6l3.3-6c-1.3-.9-2.8-1.4-4.6-1.9s-3.6-.7-5.5-.7c-2.8,0-5.3.4-7.2,1.3-2,.9-3.6,2-4.7,3.4s-1.9,3-2.1,4.7c-.2,1.5-.1,2.8.4,3.8.4,1,1.1,1.9,2,2.4.9.7,1.9,1.1,3,1.5s2.2.7,3.4,1c1.1.2,2.2.5,3.1.8s1.6.5,2.2,1,.8.9.7,1.5c-.1.4-.3.9-.7,1.2-.3.3-.9.7-1.6.9s-1.6.3-2.7.3c-1.6,0-3.3-.2-4.9-.8s-3.1-1.2-4.2-2.1l-3.5,6c1.2,1,3,1.6,5,2.3,2.1.5,4.4.9,6.7.9s5.3-.4,7.2-1.3c2-.9,3.5-2,4.7-3.4,1.1-1.4,1.9-3,2.1-4.6.2-1.5.1-2.7-.4-3.7-.4-1-1.1-1.9-2-2.4-.9-.7-1.9-1.1-3-1.5-1.1-.3-2.2-.7-3.4-.9-1.1-.2-2.2-.4-3.1-.8-1-.2-1.6-.5-2.2-.9s-.8-.9-.7-1.5c.1-.9.3-1.3.7-1.6v.2h.1Z"/>
            <polygon class="cls-1" points="318.1 26.3 292.3 26.3 291.4 32.7 300.2 32.7 297.2 55.1 305.5 55.1 308.4 32.7 317.2 32.7 318.1 26.3"/>
            <path class="cls-1" d="M330,26.3l-16.5,28.8h8.3l3-5.6h12.3l1.5,5.6h8.4l-8.9-28.8h-8.1,0ZM328,43.6l4.9-9.2,2.5,9.2h-7.5.1Z"/>
            <path class="cls-1" d="M372.1,40.2c-.9-.7-1.9-1.1-3-1.5-1.1-.3-2.2-.7-3.4-.9-1.1-.2-2.2-.4-3.1-.8-1-.2-1.6-.5-2.2-.9s-.8-.9-.7-1.5c.1-.5.3-1,.7-1.3.3-.4.9-.7,1.6-.9s1.6-.3,2.7-.3,2.5.2,3.8.5,2.6.9,3.8,1.6l3.3-6c-1.3-.9-2.8-1.4-4.6-1.9s-3.6-.7-5.5-.7c-2.8,0-5.3.4-7.2,1.3-2,.9-3.6,2-4.7,3.4s-1.9,3-2.1,4.7c-.2,1.5-.1,2.8.4,3.8.4,1,1.1,1.9,2,2.4.9.7,1.9,1.1,3,1.5s2.2.7,3.4,1c1.1.2,2.2.5,3.1.8s1.6.5,2.2,1,.8.9.7,1.5c-.1.4-.3.9-.7,1.2-.3.3-.9.7-1.6.9s-1.6.3-2.7.3c-1.6,0-3.3-.2-4.9-.8s-3.1-1.2-4.2-2.1l-3.5,6c1.2,1,3,1.6,5,2.3,2.1.5,4.4.9,6.7.9s5.3-.4,7.2-1.3c2-.9,3.5-2,4.7-3.4,1.1-1.4,1.9-3,2.1-4.6.2-1.5.1-2.7-.4-3.7-.4-1.3-1.1-2.1-2-2.7v.2h.1Z"/>
          </g>
        </g>
      </g>
    </g>
  </g>
</svg>